<?xml version="1.0" encoding="UTF-8"?>
<!-- Generator: Adobe Illustrator 24.2.3, SVG Export Plug-In . SVG Version: 6.00 Build 0)  -->
<svg xmlns="http://www.w3.org/2000/svg" xmlns:xlink="http://www.w3.org/1999/xlink" version="1.1" id="Capa_1" x="0px" y="0px" viewBox="0 0 512 512" style="enable-background:new 0 0 512 512;" xml:space="preserve" width="512" height="512">
<g fill="#052438">
	<g>
		<path d="M352.577,330.394H159.423c-6.075,0-11,4.925-11,11s4.925,11,11,11h193.154    C367.114,351.841,367.216,330.993,352.577,330.394z"/>
		<path d="M159.423,291.398h193.154c6.075,0,11-4.925,11-11s-4.925-11-11-11H159.423C144.886,269.951,144.784,290.8,159.423,291.398    z"/>
		<path d="M474.568,125.693c6.075,0,11-4.925,11-11V53.697c0-6.075-4.925-11-11-11h-49.996V11c0-6.075-4.925-11-11-11H78.096    C49.608,0,26.432,23.176,26.432,51.664v408.672c0,28.488,23.177,51.664,51.664,51.664h335.477c4.449,0,8.46-2.68,10.163-6.791    c1.702-4.11,0.761-8.842-2.385-11.988c-16.865-16.203-18.149-44.902-2.931-62.549h56.149c6.075,0,11-4.925,11-11v-60.996    c0-6.075-4.925-11-11-11h-49.996v-99.992h49.996c6.075,0,11-4.925,11-11v-60.996c0-6.075-4.925-11-11-11h-49.996v-38.996H474.568z     M463.568,64.697v38.996h-38.996V64.697H463.568z M402.572,53.697c0,111.309,0,243.398,0,354.975H109.428V22h293.145V53.697z     M48.432,51.664C48.432,35.307,61.739,22,78.096,22h9.332v386.672c-21.243,0-31.243,3.365-38.996,9.386V51.664z M392.444,490    H78.096c-16.356,0-29.664-13.307-29.664-29.664c0-16.356,13.308-29.664,29.664-29.664h314.349    C383.526,448.792,383.526,471.881,392.444,490z M463.568,369.676v38.996h-38.996v-38.996H463.568z M463.568,186.689v38.996    h-38.996v-38.996H463.568z"/>
	</g>
	<g>
		<g>
			<path style="fill:#1A9CFE;" d="M352.577,175.506H159.423c-6.075,0-11-4.925-11-11V73.012c0-6.075,4.925-11,11-11h193.154     c6.075,0,11,4.925,11,11v91.494C363.577,170.582,358.652,175.506,352.577,175.506z M170.423,153.506h171.154V84.012H170.423     V153.506z"/>
		</g>
		<path style="fill:#1A9CFE;" d="M463.568,308.681v38.996h11c6.075,0,11,4.925,11,11v-60.996c0-6.075-4.925-11-11-11h-49.996v22    H463.568z"/>
	</g>
</g>















</svg>
