<?xml version="1.0" encoding="iso-8859-1"?>
<!-- Generator: Adobe Illustrator 27.0.0, SVG Export Plug-In . SVG Version: 6.00 Build 0)  -->
<svg version="1.1" id="Capa_1" xmlns="http://www.w3.org/2000/svg" xmlns:xlink="http://www.w3.org/1999/xlink" x="0px" y="0px"
	 viewBox="0 0 512 512" style="enable-background:new 0 0 512 512;" xml:space="preserve" fill="#052438">
<g>
	<g>
		<path style="fill:#0496FF;" d="M169.5,274.911v-29.045c0-6.075-4.925-11-11-11s-11,4.925-11,11v29.045
			c-5.607,0.505-10,5.216-10,10.954c0,6.075,4.925,11,11,11h20c6.075,0,11-4.925,11-11C179.5,280.127,175.107,275.417,169.5,274.911
			z"/>
		<path style="fill:#0496FF;" d="M236.061,59.933c-6.075,0-11,4.925-11,11v99H80.94c-6.075,0-11,4.925-11,11s4.925,11,11,11h155.121
			c6.075,0,11-4.925,11-11v-110C247.061,64.857,242.136,59.933,236.061,59.933z"/>
		<path style="fill:#0496FF;" d="M80.609,144.137c2.098,1.874,4.715,2.796,7.323,2.796c3.024,0,6.035-1.24,8.208-3.673
			l23.652-26.482l38.361,0.016h0.004c2.917,0,5.715-1.159,7.778-3.222l15.446-15.446c1.861,3.434,5.497,5.766,9.677,5.766
			c6.075,0,11-4.925,11-11v-20c0-6.075-4.925-11-11-11h-20c-6.075,0-11,4.925-11,11c0,4.18,2.332,7.816,5.766,9.677l-12.223,12.223
			l-38.729-0.016h-0.004c-3.133,0-6.117,1.336-8.204,3.673l-26.934,30.157C75.686,133.137,76.078,140.09,80.609,144.137z"/>
	</g>
	<path d="M501,289.992h-14.267v-41.14c0-25.163-13.569-47.217-33.774-59.228c12.751-10.273,20.922-26.012,20.922-43.623
		c0-30.879-25.121-56-56-56s-56,25.122-56,56c0,17.611,8.172,33.35,20.922,43.623c-4.08,2.425-7.889,5.26-11.37,8.447h-14.12
		l-21.005-31.08l-0.109-0.158C328.292,155.562,314.722,150.57,302,153V22h4c6.075,0,11-4.925,11-11s-4.925-11-11-11H11
		C4.925,0,0,4.925,0,11s4.925,11,11,11h4v218.866c0,6.075,4.925,11,11,11h265c6.075,0,11-4.925,11-11v-3.67l9.081,13.337
		c1.051,1.618,2.225,3.128,3.505,4.521c-5.546,6.051-8.935,14.11-8.935,22.946c0,4.215,0.778,8.258,2.197,11.993H256
		c-6.075,0-11,4.925-11,11v37.862c-21.846,5.009-38.191,24.607-38.191,47.952c0,13.831,5.738,26.346,14.957,35.292
		c-14.028,7.026-25.756,18.229-33.67,32.039c-7.914-13.811-19.642-25.013-33.67-32.039c9.22-8.946,14.957-21.461,14.957-35.292
		c0-27.125-22.067-49.192-49.191-49.192C93.067,337.614,71,359.681,71,386.806c0,13.831,5.738,26.346,14.958,35.292
		c-26.41,13.228-44.669,41.261-44.669,73.628V501c0,6.075,4.925,11,11,11H501c6.075,0,11-4.925,11-11V300.992
		C512,294.917,507.075,289.992,501,289.992z M383.881,146.001c0-18.748,15.252-34,34-34s34,15.252,34,34c0,18.748-15.252,34-34,34
		S383.881,164.749,383.881,146.001z M37,229.866V22h243v145.735c-2.49,3.804-4.202,8.112-5.011,12.725
		c-1.501,8.556,0.278,17.182,5.011,24.417v24.989H37z M298.732,193.306l-0.088-0.126c-1.831-2.61-2.536-5.778-1.985-8.918
		c0.551-3.14,2.292-5.878,4.902-7.709c5.366-3.763,12.786-2.482,16.582,2.851l27.485,40.669h9.709
		c-3.406,7.372-5.546,15.444-6.139,23.936h-9.554c-0.07,0-0.141,0.001-0.211,0.001v-0.002c-4.031-0.044-7.744-2.102-9.934-5.506
		L298.732,193.306z M327.652,278c0-6.612,5.38-11.992,11.992-11.992h41.569c6.075,0,11-4.925,11-11s-4.925-11-11-11h-9.935
		c2.432-23.566,22.404-42.006,46.603-42.006c25.834,0,46.852,21.018,46.852,46.852v41.14h-35.701
		c0.602-1.591,1.091-3.242,1.454-4.945l9.534-34.445c1.62-5.855-1.812-11.915-7.667-13.536c-5.861-1.619-11.916,1.813-13.536,7.667
		l-9.63,34.793c-0.071,0.256-0.133,0.516-0.185,0.777c-1.122,5.609-6.054,9.668-11.75,9.689h-57.708
		C332.987,289.938,327.652,284.558,327.652,278z M490,311.992v25.621H267v-25.621H490z M391.808,413.998
		c-14.993,0-27.191-12.198-27.191-27.192s12.198-27.192,27.191-27.192c14.994,0,27.192,12.198,27.192,27.192
		S406.802,413.998,391.808,413.998z M357.574,422.098c-14.027,7.026-25.755,18.229-33.669,32.039
		c-7.914-13.81-19.642-25.013-33.67-32.039c9.22-8.946,14.958-21.461,14.958-35.292c0-10.046-3.028-19.398-8.218-27.193h53.86
		c-5.19,7.795-8.218,17.147-8.218,27.193C342.617,400.636,348.354,413.152,357.574,422.098z M228.809,386.806
		c0-14.994,12.198-27.192,27.191-27.192c14.995,0,27.193,12.198,27.193,27.192S270.995,413.998,256,413.998
		C241.007,413.998,228.809,401.799,228.809,386.806z M120.192,359.614c14.993,0,27.191,12.198,27.191,27.192
		s-12.198,27.192-27.191,27.192c-14.994,0-27.192-12.198-27.192-27.192S105.198,359.614,120.192,359.614z M63.547,490
		c2.755-30.258,27.108-54.002,56.645-54.002s53.89,23.745,56.645,54.002H63.547z M199.355,490
		c2.755-30.258,27.108-54.002,56.645-54.002s53.89,23.745,56.645,54.002H199.355z M335.165,490
		c2.755-30.258,27.107-54.002,56.644-54.002c29.537,0,53.89,23.745,56.645,54.002H335.165z M470.521,490
		c-2.009-29.923-19.639-55.461-44.478-67.902c9.22-8.946,14.958-21.461,14.958-35.292c0-10.046-3.028-19.398-8.218-27.193H490V490
		H470.521z"/>
</g>
<g>
</g>
<g>
</g>
<g>
</g>
<g>
</g>
<g>
</g>
<g>
</g>
<g>
</g>
<g>
</g>
<g>
</g>
<g>
</g>
<g>
</g>
<g>
</g>
<g>
</g>
<g>
</g>
<g>
</g>
</svg>
